 http://images.allocine.fr/medias/nmedia/18/78/60/34/19697027.jpg

SAMPLE :

Origine du film : U.S.A.
Réalisateur : Scott Charles Stewart
Acteurs : Paul Bettany, Karl Urban, Cam Gigandet, Maggie Q, Lily Collins
Genre : Aventure, Epouvante-horreur, Science fiction
Durée : 1h27min
Date de sortie : 11 Mai 2011
Année de production : 2011
Titre Original : Priest

Dans un monde ravagé par des siècles de guerre entre l'homme et les vampires, un prêtre guerrier se retourne contre l'église afin de traquer une bande de vampires meurtriers qui ont kidnappé sa nièce.


Video
ID : 0
Format : MPEG-4 Visual
Format profile : Advanced Simple@L5
Format settings, BVOP : 2
Format settings, QPel : No
Format settings, GMC : No warppoints
Format settings, Matrix : Default (H.263)
Muxing mode : Packed bitstream
Codec ID : XVID
Codec ID/Hint : XviD
Duration : 1h 23mn
Bit rate : 1 030 Kbps
Width : 640 pixels
Height : 272 pixels
Display aspect ratio : 2.35:1
Frame rate : 23.976 fps
Color space : YUV
Chroma subsampling : 4:2:0
Bit depth : 8 bits
Scan type : Progressive
Compression mode : Lossy
Bits/(Pixel*Frame) : 0.247
Stream size : 617 MiB (88%)
Writing library : XviD 1.1.2 (UTC 2006-11-01)

Audio
ID : 1
Format : MPEG Audio
Format version : Version 1
Format profile : Layer 3
Codec ID : 55
Codec ID/Hint : MP3
Duration : 1h 23mn
Bit rate mode : Variable
Bit rate : 124 Kbps
Channel(s) : 2 channels
Sampling rate : 48.0 KHz
Compression mode : Lossy
Stream size : 74.4 MiB (11%)
Alignment : Aligned on interleaves
Interleave, duration : 24 ms (0.58 video frame)
Interleave, preload duration : 360 ms